<svg width="120" height="20" viewBox="0 0 120 20" fill="none" xmlns="http://www.w3.org/2000/svg">
<path d="M9.10362 3.48313C9.47045 2.73997 10.5302 2.73997 10.897 3.48313L12.3429 6.41226C12.4884 6.70711 12.7696 6.91157 13.095 6.95912L16.3299 7.43195C17.1498 7.5518 17.4766 8.55964 16.883 9.1378L14.5438 11.4162C14.3079 11.6459 14.2002 11.9771 14.2559 12.3016L14.8078 15.5191C14.9479 16.3361 14.0903 16.9591 13.3567 16.5733L10.4658 15.0529C10.1744 14.8997 9.82626 14.8997 9.53487 15.0529L6.64396 16.5733C5.91033 16.9591 5.05278 16.3361 5.1929 15.5191L5.74475 12.3016C5.80041 11.9771 5.69274 11.6459 5.45687 11.4162L3.11767 9.1378C2.52408 8.55964 2.85086 7.5518 3.67078 7.43195L6.90569 6.95912C7.23105 6.91157 7.51223 6.70711 7.65777 6.41226L9.10362 3.48313Z" fill="#FFB800"/>
<path d="M34.1036 3.48313C34.4705 2.73997 35.5302 2.73997 35.897 3.48313L37.3429 6.41226C37.4884 6.70711 37.7696 6.91157 38.095 6.95912L41.3299 7.43195C42.1498 7.5518 42.4766 8.55964 41.883 9.1378L39.5438 11.4162C39.3079 11.6459 39.2002 11.9771 39.2559 12.3016L39.8078 15.5191C39.9479 16.3361 39.0903 16.9591 38.3567 16.5733L35.4658 15.0529C35.1744 14.8997 34.8263 14.8997 34.5349 15.0529L31.644 16.5733C30.9103 16.9591 30.0528 16.3361 30.1929 15.5191L30.7447 12.3016C30.8004 11.9771 30.6927 11.6459 30.4569 11.4162L28.1177 9.1378C27.5241 8.55964 27.8509 7.5518 28.6708 7.43195L31.9057 6.95912C32.231 6.91157 32.5122 6.70711 32.6578 6.41226L34.1036 3.48313Z" fill="#FFB800"/>
<path d="M59.1036 3.48313C59.4705 2.73997 60.5302 2.73997 60.897 3.48313L62.3429 6.41226C62.4884 6.70711 62.7696 6.91157 63.095 6.95912L66.3299 7.43195C67.1498 7.5518 67.4766 8.55964 66.883 9.1378L64.5438 11.4162C64.3079 11.6459 64.2002 11.9771 64.2559 12.3016L64.8078 15.5191C64.9479 16.3361 64.0903 16.9591 63.3567 16.5733L60.4658 15.0529C60.1744 14.8997 59.8263 14.8997 59.5349 15.0529L56.644 16.5733C55.9103 16.9591 55.0528 16.3361 55.1929 15.5191L55.7447 12.3016C55.8004 11.9771 55.6927 11.6459 55.4569 11.4162L53.1177 9.1378C52.5241 8.55964 52.8509 7.5518 53.6708 7.43195L56.9057 6.95912C57.231 6.91157 57.5122 6.70711 57.6578 6.41226L59.1036 3.48313Z" fill="#FFB800"/>
<path d="M84.1036 3.48313C84.4705 2.73997 85.5302 2.73997 85.897 3.48313L87.3429 6.41226C87.4884 6.70711 87.7696 6.91157 88.095 6.95912L91.3299 7.43195C92.1498 7.5518 92.4766 8.55964 91.883 9.1378L89.5438 11.4162C89.3079 11.6459 89.2002 11.9771 89.2559 12.3016L89.8078 15.5191C89.9479 16.3361 89.0903 16.9591 88.3567 16.5733L85.4658 15.0529C85.1744 14.8997 84.8263 14.8997 84.5349 15.0529L81.644 16.5733C80.9103 16.9591 80.0528 16.3361 80.1929 15.5191L80.7447 12.3016C80.8004 11.9771 80.6927 11.6459 80.4569 11.4162L78.1177 9.1378C77.5241 8.55964 77.8509 7.5518 78.6708 7.43195L81.9057 6.95912C82.231 6.91157 82.5122 6.70711 82.6578 6.41226L84.1036 3.48313Z" stroke="#FFB800" stroke-linecap="round" stroke-linejoin="round"/>
<path d="M109.104 3.48313C109.47 2.73997 110.53 2.73997 110.897 3.48313L112.343 6.41226C112.488 6.70711 112.77 6.91157 113.095 6.95912L116.33 7.43195C117.15 7.5518 117.477 8.55964 116.883 9.1378L114.544 11.4162C114.308 11.6459 114.2 11.9771 114.256 12.3016L114.808 15.5191C114.948 16.3361 114.09 16.9591 113.357 16.5733L110.466 15.0529C110.174 14.8997 109.826 14.8997 109.535 15.0529L106.644 16.5733C105.91 16.9591 105.053 16.3361 105.193 15.5191L105.745 12.3016C105.8 11.9771 105.693 11.6459 105.457 11.4162L103.118 9.1378C102.524 8.55964 102.851 7.5518 103.671 7.43195L106.906 6.95912C107.231 6.91157 107.512 6.70711 107.658 6.41226L109.104 3.48313Z" stroke="#FFB800" stroke-linecap="round" stroke-linejoin="round"/>
</svg>
