<svg width="32" height="32" viewBox="0 0 32 32" fill="none" xmlns="http://www.w3.org/2000/svg">
<rect x="0.5" y="0.5" width="31" height="31" rx="13.5" fill="white" stroke="#F0F0F0"/>
<path d="M22.7908 11.8863C22.802 12.0568 22.802 12.2274 22.802 12.398C22.802 17.6 19.1726 23.5939 12.5391 23.5939C10.4954 23.5939 8.59696 22.9482 7 21.8274C7.29037 21.8639 7.56953 21.8761 7.87106 21.8761C9.55733 21.8761 11.1096 21.2548 12.3492 20.1949C10.7634 20.1584 9.43451 19.0254 8.97663 17.466C9.2 17.5025 9.42333 17.5269 9.65788 17.5269C9.98172 17.5269 10.3056 17.4781 10.6071 17.3929C8.95432 17.0274 7.71469 15.4436 7.71469 13.531V13.4822C8.19488 13.7746 8.7533 13.9574 9.34513 13.9817C8.37356 13.2751 7.73703 12.069 7.73703 10.7045C7.73703 9.97359 7.91568 9.30354 8.22839 8.71876C10.004 11.1066 12.6731 12.6659 15.6659 12.8365C15.6101 12.5441 15.5766 12.2396 15.5766 11.935C15.5766 9.76648 17.1847 8 19.1837 8C20.2223 8 21.1603 8.47513 21.8192 9.24264C22.6344 9.07209 23.4162 8.74314 24.1086 8.29239C23.8405 9.20611 23.271 9.97363 22.5228 10.4609C23.2487 10.3757 23.9522 10.1563 24.5999 9.85179C24.1086 10.6315 23.4944 11.3258 22.7908 11.8863Z" fill="#3CB5DB"/>
</svg>
