<svg width="32" height="32" viewBox="0 0 32 32" fill="none" xmlns="http://www.w3.org/2000/svg">
<rect x="0.5" y="0.5" width="31" height="31" rx="13.5" fill="white" stroke="#F0F0F0"/>
<path d="M26.0381 11.3907C25.8145 10.5285 25.1556 9.84941 24.319 9.61896C22.8027 9.2002 16.7222 9.2002 16.7222 9.2002C16.7222 9.2002 10.6418 9.2002 9.1254 9.61896C8.28882 9.84945 7.62994 10.5285 7.40631 11.3907C7 12.9536 7 16.2143 7 16.2143C7 16.2143 7 19.4751 7.40631 21.038C7.62994 21.9002 8.28882 22.551 9.1254 22.7814C10.6418 23.2002 16.7222 23.2002 16.7222 23.2002C16.7222 23.2002 22.8026 23.2002 24.319 22.7814C25.1556 22.551 25.8145 21.9002 26.0381 21.038C26.4444 19.4751 26.4444 16.2143 26.4444 16.2143C26.4444 16.2143 26.4444 12.9536 26.0381 11.3907ZM14.7336 19.1749V13.2538L19.8156 16.2144L14.7336 19.1749Z" fill="#FF2B2B"/>
</svg>
