<svg width="18" height="15" viewBox="0 0 18 15" fill="none" xmlns="http://www.w3.org/2000/svg">
<path fill-rule="evenodd" clip-rule="evenodd" d="M0 8.24426V7.24397C0 6.96774 0.20147 6.74382 0.45 6.74382H15.003L10.9979 2.3025C10.9128 2.20858 10.8649 2.08076 10.8649 1.9474C10.8649 1.81404 10.9128 1.6862 10.9979 1.59229L11.637 0.892081C11.7214 0.797401 11.8365 0.744141 11.9565 0.744141C12.0764 0.744141 12.1915 0.797401 12.276 0.892081L17.8019 7.0239C17.9286 7.16446 17.9998 7.35515 18 7.55406V7.93418C17.9979 8.13265 17.927 8.32257 17.8019 8.46433L12.276 14.5961C12.1915 14.6909 12.0764 14.7441 11.9565 14.7441C11.8365 14.7441 11.7214 14.6908 11.637 14.5961L10.9979 13.8859C10.9133 13.7937 10.8657 13.6676 10.8657 13.5359C10.8657 13.4041 10.9133 13.2779 10.9979 13.1857L15.003 8.74443H0.45C0.20147 8.74443 0 8.5205 0 8.24428L0 8.24426Z" fill="white"/>
</svg>
