<svg width="48" height="48" viewBox="0 0 48 48" fill="none" xmlns="http://www.w3.org/2000/svg">
<path d="M23.999 33C32.2833 33 38.999 26.2843 38.999 18C38.999 9.71573 32.2833 3 23.999 3C15.7148 3 8.99902 9.71573 8.99902 18C8.99902 26.2843 15.7148 33 23.999 33Z" stroke="white" stroke-width="2.5" stroke-linecap="round" stroke-linejoin="round"/>
<path d="M23.999 27C28.9696 27 32.999 22.9706 32.999 18C32.999 13.0294 28.9696 9 23.999 9C19.0285 9 14.999 13.0294 14.999 18C14.999 22.9706 19.0285 27 23.999 27Z" stroke="white" stroke-width="2.5" stroke-linecap="round" stroke-linejoin="round"/>
<path d="M33 29.9991V45L23.9987 40.5L15 45V30.0004" stroke="white" stroke-width="2.5" stroke-linecap="round" stroke-linejoin="round"/>
</svg>
