<svg width="48" height="48" viewBox="0 0 48 48" fill="none" xmlns="http://www.w3.org/2000/svg">
<path fill-rule="evenodd" clip-rule="evenodd" d="M24 7.125C14.6802 7.125 7.125 14.6802 7.125 24C7.125 33.3198 14.6802 40.875 24 40.875C33.3198 40.875 40.875 33.3198 40.875 24C40.875 14.6802 33.3198 7.125 24 7.125ZM4.875 24C4.875 13.4376 13.4376 4.875 24 4.875C34.5624 4.875 43.125 13.4376 43.125 24C43.125 34.5624 34.5624 43.125 24 43.125C13.4376 43.125 4.875 34.5624 4.875 24Z" fill="white" stroke="white" stroke-linecap="round" stroke-linejoin="round"/>
<path fill-rule="evenodd" clip-rule="evenodd" d="M32.3592 27.5254C32.8971 27.8364 33.081 28.5245 32.77 29.0624C31.8805 30.6009 30.6019 31.8784 29.0626 32.7665C27.5233 33.6546 25.7774 34.1221 24.0002 34.1222C22.2231 34.1222 20.4772 33.6547 18.9379 32.7666C17.3985 31.8785 16.1199 30.6011 15.2304 29.0626C14.9194 28.5247 15.1033 27.8365 15.6412 27.5255C16.1791 27.2145 16.8672 27.3985 17.1782 27.9363C17.8702 29.1331 18.8648 30.1268 20.0622 30.8177C21.2597 31.5085 22.6178 31.8722 24.0002 31.8722C25.3826 31.8721 26.7407 31.5085 27.9382 30.8176C29.1356 30.1267 30.1302 29.133 30.8222 27.9362C31.1331 27.3983 31.8213 27.2144 32.3592 27.5254Z" fill="white" stroke="white" stroke-linecap="round" stroke-linejoin="round"/>
<path d="M18.625 20.25C18.625 21.0094 18.0094 21.625 17.25 21.625C16.4906 21.625 15.875 21.0094 15.875 20.25C15.875 19.4906 16.4906 18.875 17.25 18.875C18.0094 18.875 18.625 19.4906 18.625 20.25Z" fill="white" stroke="white"/>
<path d="M32.125 20.25C32.125 21.0094 31.5094 21.625 30.75 21.625C29.9906 21.625 29.375 21.0094 29.375 20.25C29.375 19.4906 29.9906 18.875 30.75 18.875C31.5094 18.875 32.125 19.4906 32.125 20.25Z" fill="white" stroke="white"/>
</svg>
